# xmcd CD database file
#
# Track frame offsets:
#	150
#	20625
#	41110
#	60502
#	89640
#	110735
#	131375
#	147192
#	163250
#	176655
#	193590
#	214115
#	230772
#	255760
#	273377
#
# Disc length: 3794 seconds
#
# Revision: 0
# Processed by: cddbd v1.5.2PL0 Copyright (c) Steve Scherf et al.
# Submitted via: CDex 1.51
#
DISCID=dd0ed00f
DTITLE=Various Artist - EMOTION VOL 2 
DYEAR=2003
DGENRE=New Age
TTITLE0=01_Erik Satie_Gymnopedie
TTITLE1=02_Safri Duo Adagìo
TTITLE2=03_Faithless_Not enuff love
TTITLE3=04_Afterlife_Sunrise
TTITLE4=05_Atb and enigma_Enigmatic encounter
TTITLE5=06_Schiller_Freedom (freiheit)
TTITLE6=07_Gouryella_Ligaya
TTITLE7=08_Paul van dyk_Forbidden fruit
TTITLE8=09_Accadia_Into the dawn
TTITLE9=10_Paul oakenfold - Southern sun
TTITLE10=11_Way out west_Mindcircus
TTITLE11=12_The sabres of paradise_Smokebelch II > beatless mix
TTITLE12=13_Lux - Northern lights
TTITLE13=14_Table vs. ludovico einaudi_Due tramonti
TTITLE14=15_Mohicans_Riding storm (stars'eyes)
EXTD=YEAR: 2003
EXTT0=
EXTT1=
EXTT2=
EXTT3=
EXTT4=
EXTT5=
EXTT6=
EXTT7=
EXTT8=
EXTT9=
EXTT10=
EXTT11=
EXTT12=
EXTT13=
EXTT14=
PLAYORDER=
